<?xml version="1.0" encoding="UTF-8"?>
<svg width="512" height="512" viewBox="0 0 512 512" fill="none" xmlns="http://www.w3.org/2000/svg">
  <!-- Book base -->
  <path d="M96 80C96 62.3269 110.327 48 128 48H384C401.673 48 416 62.3269 416 80V432C416 449.673 401.673 464 384 464H128C110.327 464 96 449.673 96 432V80Z" fill="#ffffff"/>
  
  <!-- Book pages -->
  <path d="M128 48H384C401.673 48 416 62.3269 416 80V432C416 449.673 401.673 464 384 464H128C110.327 464 96 449.673 96 432V80C96 62.3269 110.327 48 128 48Z" stroke="#1a365d" stroke-width="16"/>
  
  <!-- Arabic text decoration -->
  <path d="M160 160C160 160 240 140 320 160M160 240C160 240 240 220 320 240M160 320C160 240 240 300 320 320" stroke="#1a365d" stroke-width="16" stroke-linecap="round"/>
  
  <!-- Star decoration -->
  <path d="M256 120L271.213 151.574L305.267 156.393L280.634 180.426L286.427 214.361L256 198.197L225.573 214.361L231.366 180.426L206.733 156.393L240.787 151.574L256 120Z" fill="#1a365d"/>
</svg>
